Coordinates
version=1
nRows=15
nColumns=42
inDegrees=yes

Units are S.I. units (second, meters, Newtons, ...)
If the header above contains a line with 'inDegrees', this indicates whether rotational values are in degrees (yes) or radians (no).

endheader
time	pelvis_tilt	pelvis_list	pelvis_rotation	pelvis_tx	pelvis_ty	pelvis_tz	hip_flexion_r	hip_adduction_r	hip_rotation_r	knee_angle_r	knee_adduction_r	knee_angle_r_beta	ankle_angle_r	subtalar_angle_r	mtp_angle_r	hip_flexion_l	hip_adduction_l	hip_rotation_l	knee_angle_l	knee_adduction_l	knee_angle_l_beta	ankle_angle_l	subtalar_angle_l	mtp_angle_l	lumbar_extension	lumbar_bending	lumbar_rotation	arm_flex_r	arm_add_r	arm_rot_r	elbow_flex_r	pro_sup_r	wrist_flex_r	wrist_dev_r	arm_flex_l	arm_add_l	arm_rot_l	elbow_flex_l	pro_sup_l	wrist_flex_l	wrist_dev_l
      0.18000000	      8.29684521	     -0.40110458	    -11.17117857	     -0.90571974	      0.94480108	     -0.24326403	    -25.38837174	     -0.97685929	     -5.87732198	     13.41303169	     -3.38554862	      0.23410157	     28.97043055	     23.20165230	     -9.02278768	     18.75429575	     -3.56573478	    -35.73211446	      6.35402923	     -3.56839853	      0.11089873	     13.46601197	     28.60212444	     -9.02278768	    -22.33291766	     -3.12561323	      8.60033065	      7.37384126	    -16.41412281	      6.32999535	     48.50131651	     90.00000001	      0.00000000	      0.00000000	    -17.65610042	     -4.38750016	     -5.19927306	     34.07356493	     90.00000001	      0.00000000	      0.00000000
      0.19000000	      8.67095791	     -0.17021022	    -11.42038532	     -0.88848993	      0.94377747	     -0.24404441	    -26.26046558	     -1.85157269	     -5.91711943	     14.56244151	     -3.14125577	      0.25416255	     28.08719078	     22.94160814	     -9.00007840	     18.64947957	     -3.24703159	    -35.10819543	      8.25997418	     -4.02025143	      0.14416375	     13.29775293	     27.80188031	     -9.00007840	    -22.51401830	     -3.51870709	      8.83644884	      7.00744352	    -16.43696240	      6.24096229	     48.54160851	     90.00000001	      0.00000000	      0.00000000	    -17.81918825	     -4.31105387	     -5.26473223	     34.08443778	     90.00000001	      0.00000000	      0.00000000
      0.20000000	      8.93985060	      0.08944263	    -11.61668458	     -0.87102069	      0.94300515	     -0.24485297	    -26.83944451	     -2.65562216	     -6.05690424	     16.02482696	     -3.06879708	      0.27968599	     26.58100399	     22.63363197	     -8.93556302	     18.54223085	     -2.91281680	    -34.55286070	     10.19504769	     -4.34107715	      0.17793715	     12.96974351	     26.56813212	     -8.93556302	    -22.55173172	     -3.94106843	      9.06123319	      6.38429692	    -16.32690330	      5.79636653	     48.85345541	     90.00000001	      0.00000000	      0.00000000	    -17.91848666	     -4.23952163	     -5.67879906	     34.10477011	     90.00000001	      0.00000000	      0.00000000
      0.21000000	      9.25307787	      0.40211140	    -11.77620953	     -0.85330665	      0.94265947	     -0.24590082	    -27.30056941	     -3.58597549	     -6.35220686	     17.76523406	     -2.89417890	      0.31006183	     24.93749740	     22.19551481	     -8.90992828	     18.22256689	     -2.41524913	    -34.07583538	     11.87528498	     -4.65806530	      0.20726282	     12.34492837	     25.77352138	     -8.90992828	    -22.60714041	     -4.38230872	      9.14148356	      5.84678148	    -16.23965014	      5.67131135	     48.75476384	     90.00000001	      0.00000000	      0.00000000	    -18.01587737	     -4.19908236	     -5.84249107	     34.05584004	     90.00000001	      0.00000000	      0.00000000
      0.22000000	      9.46759239	      0.72136528	    -11.84949926	     -0.83552250	      0.94265724	     -0.24710710	    -27.44299310	     -4.45973482	     -6.72980836	     19.84567619	     -2.77615398	      0.34637239	     22.83323048	     21.65836602	     -8.88404802	     17.90395291	     -1.86224226	    -33.50140462	     13.38287004	     -4.95078797	      0.23357515	     11.44535815	     25.03229833	     -8.88404802	    -22.56199266	     -4.78296519	      9.14754112	      5.24988720	    -16.10466474	      5.50773338	     48.62693575	     90.00000001	      0.00000000	      0.00000000	    -18.03454671	     -4.18642184	     -6.07386852	     33.97924465	     90.00000001	      0.00000000	      0.00000000
      0.23000000	      9.63342008	      1.08931222	    -11.78344889	     -0.81776629	      0.94309762	     -0.24847302	    -27.33660187	     -5.28659431	     -7.14219621	     22.22275908	     -2.71091982	      0.38786031	     20.21291367	     20.79970664	     -8.79551616	     17.51643348	     -1.11694376	    -32.40277409	     14.60842861	     -5.21213497	      0.25496518	     10.14667319	     23.45645482	     -8.79551616	    -22.47392474	     -5.20034680	      9.04061171	      4.59114242	    -15.76339223	      4.86500568	     48.30170290	     90.00000001	      0.00000000	      0.00000000	    -17.78220616	     -4.06933862	     -7.18547379	     33.59697407	     90.00000001	      0.00000000	      0.00000000
      0.24000000	      9.85751514	      1.48686679	    -11.70814384	     -0.80004170	      0.94395529	     -0.24995448	    -27.00558756	     -6.17841606	     -7.71413437	     25.03408007	     -2.72452445	      0.43692712	     17.49648935	     19.94406145	     -8.77823980	     17.09671963	     -0.44936298	    -32.02363473	     15.95350227	     -5.50039367	      0.27844114	      9.32846091	     23.20035667	     -8.77823980	    -22.47636095	     -5.64269790	      8.77060788	      4.04604285	    -15.56018406	      4.88144940	     48.02155670	     90.00000001	      0.00000000	      0.00000000	    -17.71457312	     -4.09718692	     -7.35890541	     33.50141707	     90.00000001	      0.00000000	      0.00000000
      0.25000000	     10.00743614	      1.90429086	    -11.47758706	     -0.78252517	      0.94511058	     -0.25156180	    -26.34681688	     -6.97510347	     -8.44221673	     28.18256246	     -2.91068136	      0.49187851	     14.38634884	     18.77128732	     -8.75809565	     16.77926132	      0.26189343	    -31.46092759	     17.33609735	     -5.83134977	      0.30257198	      8.58028643	     22.74084771	     -8.75809565	    -22.44238922	     -6.06261684	      8.37051106	      3.44857636	    -15.29364135	      4.84164790	     47.57466777	     90.00000001	      0.00000000	      0.00000000	    -17.48628616	     -4.20399524	     -7.65027975	     33.33684987	     90.00000001	      0.00000000	      0.00000000
      0.26000000	     10.13317532	      2.34724792	    -11.17606016	     -0.76516611	      0.94652512	     -0.25324452	    -25.41913246	     -7.75276261	     -9.18079219	     31.63692688	     -3.20823916	      0.55216854	     11.30565629	     17.34791104	     -8.73821116	     16.43777531	      1.00001710	    -30.76106390	     18.68997742	     -6.08983076	      0.32620164	      8.18663465	     22.08069253	     -8.73821116	    -22.41805849	     -6.48260825	      7.85773606	      2.88291791	    -14.96281022	      4.78216392	     47.05397132	     90.00000001	      0.00000000	      0.00000000	    -17.17900065	     -4.33913716	     -8.00028995	     33.14811483	     90.00000001	      0.00000000	      0.00000000
      0.27000000	     10.19044693	      2.72729706	    -10.73701282	     -0.74820703	      0.94825757	     -0.25496710	    -24.28613473	     -8.32435328	     -9.39812200	     35.20157892	     -3.36834285	      0.61438345	      8.22548070	     14.57964869	     -8.65930079	     16.00216406	      1.78491377	    -28.80639625	     19.89260754	     -5.98367822	      0.34719150	      7.74573324	     19.46786132	     -8.65930079	    -22.41098073	     -6.79286556	      7.18439604	      2.51596070	    -14.46006540	      4.40937390	     46.10294166	     90.00000001	      0.00000000	      0.00000000	    -16.61274470	     -4.29630138	     -9.26419971	     32.64761035	     90.00000001	      0.00000000	      0.00000000
      0.28000000	     10.30206966	      3.25524929	    -10.32376932	     -0.73137362	      0.94996459	     -0.25675593	    -22.89732416	     -9.16677341	    -10.18982177	     39.09634555	     -3.78933415	      0.68235996	      5.97575611	     13.08693034	     -8.64156545	     15.52498820	      2.63038427	    -28.16315175	     20.99742002	     -6.11128169	      0.36647411	      8.10970831	     19.09157134	     -8.64156545	    -22.46643735	     -7.26317471	      6.49962945	      1.89688243	    -14.11858251	      4.46385901	     45.73612380	     90.00000001	      0.00000000	      0.00000000	    -16.20963285	     -4.57472219	     -9.49640591	     32.66577820	     90.00000001	      0.00000000	      0.00000000
      0.29000000	     10.30826415	      3.58525525	     -9.76432271	     -0.71503724	      0.95190440	     -0.25847419	    -21.35655408	     -9.58388204	    -10.22873328	     42.87761642	     -3.95873659	      0.74835558	      3.57315178	      9.57190862	     -8.58064447	     14.96668908	      3.30443848	    -26.65338250	     21.94146863	     -5.89261435	      0.38295087	      8.31539239	     17.31107940	     -8.58064447	    -22.52424106	     -7.46306553	      5.68041416	      1.53955625	    -13.65771086	      4.34702736	     44.81763148	     90.00000001	      0.00000000	      0.00000000	    -15.60052423	     -4.72939500	    -10.22446386	     32.42755690	     90.00000001	      0.00000000	      0.00000000
      0.30000000	     10.34528782	      4.00128743	     -9.25497846	     -0.69897381	      0.95391164	     -0.26021126	    -19.68006261	    -10.13805895	    -10.16126182	     46.66029799	     -4.03098089	      0.81437583	      2.07003123	      6.35659669	     -8.50760957	     14.21502008	      4.09703494	    -25.61794244	     22.48313748	     -5.74177296	      0.39240478	      8.84927138	     16.41836298	     -8.50760957	    -22.64276068	     -7.76077614	      4.86782755	      1.09363380	    -13.22748396	      4.31382363	     44.16633403	     90.00000001	      0.00000000	      0.00000000	    -14.98475264	     -4.98630336	    -10.73929883	     32.36482454	     90.00000001	      0.00000000	      0.00000000
      0.31000000	     10.34217801	      4.34228689	     -8.73923922	     -0.68323095	      0.95598253	     -0.26189663	    -17.86715603	    -10.56657335	     -9.96675251	     50.27268567	     -4.03977773	      0.87742389	      1.06611792	      3.04221860	     -8.43954622	     13.37682669	      4.78219499	    -25.01255450	     22.76712115	     -5.65942245	      0.39736123	      9.56853997	     16.28458627	     -8.43954622	    -22.76651265	     -7.94455589	      4.05046593	      0.68732413	    -12.81644658	      4.31522993	     43.45840013	     90.00000001	      0.00000000	      0.00000000	    -14.33303887	     -5.28383318	    -11.03670309	     32.35825298	     90.00000001	      0.00000000	      0.00000000
      0.32000000	     10.34980318	      4.70356711	     -8.25629629	     -0.66772881	      0.95811529	     -0.26357181	    -15.95204828	    -11.03109248	    -10.20002913	     53.63217138	     -4.38457320	      0.93605798	      1.12809354	      1.38556737	     -8.41978634	     12.35970750	      5.52257888	    -24.66448281	     22.67053791	     -5.63851569	      0.39567553	     10.35612283	     16.56852763	     -8.41978634	    -22.92163700	     -8.13002310	      3.26239395	      0.19099962	    -12.47621610	      4.38639235	     43.02003092	     90.00000001	      0.00000000	      0.00000000	    -13.65545432	     -5.67064124	    -11.06598444	     32.53302156	     90.00000001	      0.00000000	      0.00000000
